<svg width="100" height="100" viewBox="0 0 100 100" fill="none" xmlns="http://www.w3.org/2000/svg">
<g opacity="0.1">
<circle cx="50" cy="50" r="50" fill="#2F70FE"/>
<circle cx="50" cy="50" r="50" stroke="#2F70FE"/>
</g>
<path d="M47 46.5C47 48.7 45.2 50.5 43 50.5H31C28.8 50.5 27 48.7 27 46.5V34.5C27 32.3 28.8 30.5 31 30.5H43C45.2 30.5 47 32.3 47 34.5V46.5Z" stroke="black" stroke-miterlimit="10" stroke-linecap="round" stroke-linejoin="round"/>
<path d="M27 36.5H47" stroke="black" stroke-miterlimit="10" stroke-linecap="round" stroke-linejoin="round"/>
<path d="M53 46.5C53 48.7 54.8 50.5 57 50.5H69C71.2 50.5 73 48.7 73 46.5V34.5C73 32.3 71.2 30.5 69 30.5H57C54.8 30.5 53 32.3 53 34.5V46.5Z" stroke="black" stroke-miterlimit="10" stroke-linecap="round" stroke-linejoin="round"/>
<path d="M73 36.5H53" stroke="black" stroke-miterlimit="10" stroke-linecap="round" stroke-linejoin="round"/>
<path d="M47 72.5C47 74.7 45.2 76.5 43 76.5H31C28.8 76.5 27 74.7 27 72.5V60.5C27 58.3 28.8 56.5 31 56.5H43C45.2 56.5 47 58.3 47 60.5V72.5Z" stroke="black" stroke-miterlimit="10" stroke-linecap="round" stroke-linejoin="round"/>
<path d="M27 62.5H47" stroke="black" stroke-miterlimit="10" stroke-linecap="round" stroke-linejoin="round"/>
<path d="M53 72.5C53 74.7 54.8 76.5 57 76.5H69C71.2 76.5 73 74.7 73 72.5V60.5C73 58.3 71.2 56.5 69 56.5H57C54.8 56.5 53 58.3 53 60.5V72.5Z" stroke="black" stroke-miterlimit="10" stroke-linecap="round" stroke-linejoin="round"/>
<path d="M73 62.5H53" stroke="black" stroke-miterlimit="10" stroke-linecap="round" stroke-linejoin="round"/>
</svg>
